# xmcd
#
# Track frame offsets:
#	150
#	13874
#	24124
#	38884
#	51815
#	62756
#	74714
#	86266
#	98187
#	108680
#	120290
#	133908
#	145510
#	155767
#	167455
#	177718
#	188713
#	203672
#	215213
#	225451
#	236041
#	250036
#	260639
#	271866
#	283046
#
# Disc length: 3931 seconds
#
# Revision: 0
# Processed by: cddbd v1.5.2PL0 Copyright (c) Steve Scherf et al.
# Submitted via: EasyCDDAExtractor 15.3.0.1
#
DISCID=6b0f5919
DTITLE=Wills Bob - Faded Love Cd 6
DYEAR=1900
DGENRE=
TTITLE0=Betty's Waltz (1957)
TTITLE1=Wills Breakdown (1957)
TTITLE2=La Golondrina (1957)
TTITLE3=Texas Two Step (1957)
TTITLE4=Wait'll You See (1957)
TTITLE5=An Old Flame (1957)
TTITLE6=Oh Monah (1957)
TTITLE7=I'll Always Be In Love With You (1957)
TTITLE8=With Tears In My Eyes (1957)
TTITLE9=Take Me Back To Tulsa (1960)
TTITLE10=Kind Of Love I Can't Forget (1960)
TTITLE11=Time Changes Everything (1960)
TTITLE12=Stay A Little Longer (1960)
TTITLE13=You Don't Love Me But I'll Aways Care (1960)
TTITLE14=San Antonio Rose (1960)
TTITLE15=Spanish Two Step (1960)
TTITLE16=Dusty Skies (1960)
TTITLE17=Keeper Of My Heart (1960)
TTITLE18=Maiden's Prayer (1960)
TTITLE19=Ida Red (1960)
TTITLE20=Goodnight Little Sweetheart (1960)
TTITLE21=Image Of Me (1960)
TTITLE22=Goodbye Ida Jane (1960)
TTITLE23=What's The Matter With The Mill (1960)
TTITLE24=Heart To Heart Talk (1960)
EXTD=
EXTT0=
EXTT1=
EXTT2=
EXTT3=
EXTT4=
EXTT5=
EXTT6=
EXTT7=
EXTT8=
EXTT9=
EXTT10=
EXTT11=
EXTT12=
EXTT13=
EXTT14=
EXTT15=
EXTT16=
EXTT17=
EXTT18=
EXTT19=
EXTT20=
EXTT21=
EXTT22=
EXTT23=
EXTT24=
PLAYORDER=
